# xmcd
#
# Track frame offsets:
#	150
#	20290
#	39092
#	57602
#	75767
#	94695
#	115150
#	132260
#	152377
#	171507
#
# Disc length: 2484 seconds
#
# Revision: 0
# Processed by: cddbd v1.5.1PL0 Copyright (c) Steve Scherf et al.
# Submitted via: dBpowerAMP V4.0
#
DISCID=6c09b20a
DTITLE=Johnnie Taylor - Disco 9000
DYEAR=1998
DGENRE=Blues
TTITLE0=Disco Lady
TTITLE1=I Got This Thing For Your Love
TTITLE2=Play Something Pretty
TTITLE3=Somebody's Gettin' It
TTITLE4=Your Love Is Rated X
TTITLE5=Disco 9000
TTITLE6=(Ooh-Wee) She's Killing Me
TTITLE7=Ever Ready
TTITLE8=Keep On Dancing
TTITLE9=You're The Best In The World
EXTD=
EXTT0=
EXTT1=
EXTT2=
EXTT3=
EXTT4=
EXTT5=
EXTT6=
EXTT7=
EXTT8=
EXTT9=
PLAYORDER=
